<svg id="visual" viewBox="0 0 900 600" width="900" height="600" xmlns="http://www.w3.org/2000/svg" xmlns:xlink="http://www.w3.org/1999/xlink" version="1.1"><rect x="0" y="0" width="900" height="600" fill="#ffffff"></rect><defs><linearGradient id="grad1_0" x1="33.3%" y1="100%" x2="100%" y2="0%"><stop offset="20%" stop-color="#ffffff" stop-opacity="1"></stop><stop offset="80%" stop-color="#ffffff" stop-opacity="1"></stop></linearGradient></defs><defs><linearGradient id="grad2_0" x1="0%" y1="100%" x2="66.7%" y2="0%"><stop offset="20%" stop-color="#ffffff" stop-opacity="1"></stop><stop offset="80%" stop-color="#ffffff" stop-opacity="1"></stop></linearGradient></defs><g transform="translate(900, 600)"><path d="M-486.7 0C-455.2 -51.6 -423.7 -103.2 -406.5 -168.4C-389.3 -233.6 -386.5 -312.3 -344.2 -344.2C-301.9 -376 -220.1 -361 -156.1 -376.9C-92.2 -392.9 -46.1 -439.8 0 -486.7L0 0Z" fill="#4583E1"></path></g><g transform="translate(0, 0)"><path d="M486.7 0C432 44 377.2 88.1 361.2 149.6C345.2 211.2 368 290.3 344.2 344.2C320.4 398.1 250 426.7 184.8 446.2C119.7 465.8 59.9 476.3 0 486.7L0 0Z" fill="#4583E1"></path></g></svg>